<?xml version="1.0" encoding="UTF-8"?> <svg xmlns="http://www.w3.org/2000/svg" width="610" height="345" viewBox="0 0 610 345" fill="none"><path d="M76.4299 16.2655C76.4299 7.28231 83.7122 0 92.6954 0H517.311C526.294 0 533.576 7.28232 533.576 16.2655V328.734C533.576 337.718 526.294 345 517.311 345H92.6954C83.7122 345 76.4299 337.718 76.4299 328.734V16.2655Z" fill="url(#paint0_linear_7_71)"></path><path fill-rule="evenodd" clip-rule="evenodd" d="M517.072 1.71216H92.4566C84.419 1.71216 77.9032 8.22791 77.9032 16.2655V328.734C77.9032 336.772 84.419 343.288 92.4566 343.288H517.072C525.11 343.288 531.625 336.772 531.625 328.734V16.2655C531.625 8.22792 525.11 1.71216 517.072 1.71216ZM92.4566 0C83.4734 0 76.1911 7.28231 76.1911 16.2655V328.734C76.1911 337.718 83.4734 345 92.4566 345H517.072C526.055 345 533.338 337.718 533.338 328.734V16.2655C533.338 7.28232 526.055 0 517.072 0H92.4566Z" fill="url(#paint1_linear_7_71)"></path><path d="M348.424 269.24C348.424 265.692 351.301 262.816 354.85 262.816H373.323C376.871 262.816 379.748 265.692 379.748 269.24V287.708C379.748 291.256 376.871 294.132 373.323 294.132H354.85C351.301 294.132 348.424 291.256 348.424 287.708V269.24Z" fill="#8DD6B9"></path><path d="M359.472 284.497L354.045 278.461L359.472 272.452H362.062L356.612 278.461L362.062 284.497H359.472Z" fill="white"></path><path d="M366.086 272.452H368.675L374.125 278.461L368.675 284.497H366.086L371.535 278.461L366.086 272.452Z" fill="white"></path><path d="M246.55 98.8804C246.55 95.3328 249.427 92.4568 252.975 92.4568H271.448C274.997 92.4568 277.874 95.3328 277.874 98.8804V117.348C277.874 120.896 274.997 123.772 271.448 123.772H252.975C249.427 123.772 246.55 120.896 246.55 117.348V98.8804Z" fill="#1ABCFE"></path><path fill-rule="evenodd" clip-rule="evenodd" d="M264.972 104.269L262.429 100.378H254.798V117.24H270.059V104.269H264.972ZM268.051 106.276H263.885L261.342 102.385H256.806V115.232H268.051V106.276Z" fill="white"></path><path d="M406.637 133.979C406.637 130.431 409.513 127.555 413.062 127.555H431.535C435.084 127.555 437.961 130.431 437.961 133.979V152.447C437.961 155.995 435.084 158.871 431.535 158.871H413.062C409.513 158.871 406.637 155.995 406.637 152.447V133.979Z" fill="#FFC04A"></path><path d="M414.67 142.403C415.969 142.161 416.619 141.492 416.619 140.397C416.619 139.913 416.555 139.085 416.428 137.914C416.3 136.666 416.237 135.761 416.237 135.201C416.237 134.284 416.491 133.583 417.001 133.099C417.523 132.616 418.218 132.374 419.084 132.374H420.192V133.883H419.409C418.912 133.883 418.542 133.997 418.3 134.227C418.058 134.443 417.937 134.806 417.937 135.316C417.937 135.685 417.963 136.143 418.014 136.691C418.065 137.226 418.097 137.589 418.109 137.78C418.237 139.003 418.3 139.894 418.3 140.454C418.3 141.129 418.128 141.696 417.784 142.155C417.453 142.6 416.937 142.9 416.237 143.053V143.091C416.937 143.244 417.453 143.549 417.784 144.008C418.128 144.466 418.3 145.033 418.3 145.708C418.3 146.268 418.237 147.16 418.109 148.383C418.097 148.574 418.065 148.943 418.014 149.491C417.963 150.026 417.937 150.478 417.937 150.847C417.937 151.356 418.058 151.719 418.3 151.936C418.542 152.165 418.912 152.28 419.409 152.28H420.192V153.789H419.084C418.218 153.789 417.523 153.547 417.001 153.063C416.491 152.579 416.237 151.879 416.237 150.962C416.237 150.401 416.3 149.497 416.428 148.249C416.555 147.077 416.619 146.249 416.619 145.765C416.619 144.67 415.969 144.001 414.67 143.759V142.403Z" fill="#8DD6B9"></path><path d="M430.162 143.759C428.863 144.001 428.213 144.67 428.213 145.765C428.213 146.249 428.277 147.077 428.404 148.249C428.531 149.497 428.595 150.401 428.595 150.962C428.595 151.879 428.334 152.579 427.812 153.063C427.302 153.547 426.614 153.789 425.748 153.789H424.639V152.28H425.423C425.92 152.28 426.289 152.165 426.531 151.936C426.773 151.719 426.894 151.356 426.894 150.847C426.894 150.478 426.869 150.026 426.818 149.491C426.767 148.943 426.735 148.574 426.722 148.383C426.595 147.16 426.531 146.268 426.531 145.708C426.531 145.033 426.697 144.466 427.028 144.008C427.372 143.549 427.894 143.244 428.595 143.091V143.053C427.894 142.9 427.372 142.6 427.028 142.155C426.697 141.696 426.531 141.129 426.531 140.454C426.531 139.894 426.595 139.003 426.722 137.78C426.735 137.589 426.767 137.226 426.818 136.691C426.869 136.143 426.894 135.685 426.894 135.316C426.894 134.806 426.773 134.443 426.531 134.227C426.289 133.997 425.92 133.883 425.423 133.883H424.639V132.374H425.748C426.614 132.374 427.302 132.616 427.812 133.099C428.334 133.583 428.595 134.284 428.595 135.201C428.595 135.761 428.531 136.666 428.404 137.914C428.277 139.085 428.213 139.913 428.213 140.397C428.213 141.492 428.863 142.161 430.162 142.403V143.759Z" fill="#8DD6B9"></path><path d="M0 96.7371C0 91.0635 4.59936 86.4641 10.273 86.4641H174.64C180.314 86.4641 184.913 91.0635 184.913 96.7371V202.891C184.913 208.565 180.314 213.164 174.64 213.164H10.273C4.59936 213.164 0 208.565 0 202.891V96.7371Z" fill="url(#paint2_linear_7_71)"></path><path fill-rule="evenodd" clip-rule="evenodd" d="M174.64 88.1763H10.273C5.54496 88.1763 1.71216 92.0091 1.71216 96.7371V202.891C1.71216 207.619 5.54496 211.452 10.273 211.452H174.64C179.368 211.452 183.201 207.619 183.201 202.891V96.7371C183.201 92.0091 179.368 88.1763 174.64 88.1763ZM10.273 86.4641C4.59936 86.4641 0 91.0635 0 96.7371V202.891C0 208.565 4.59936 213.164 10.273 213.164H174.64C180.314 213.164 184.913 208.565 184.913 202.891V96.7371C184.913 91.0635 180.314 86.4641 174.64 86.4641H10.273Z" fill="url(#paint3_linear_7_71)"></path><path d="M20.5461 119.851C20.5461 117.015 22.8458 114.715 25.6826 114.715H73.6231C76.4599 114.715 78.7595 117.015 78.7595 119.851V174.64C78.7595 177.477 76.4599 179.777 73.6231 179.777H25.6826C22.8458 179.777 20.5461 177.477 20.5461 174.64V119.851Z" fill="white" fill-opacity="0.17"></path><path d="M89.8873 119.423C89.8873 116.823 91.9953 114.715 94.5957 114.715H155.377C157.978 114.715 160.086 116.823 160.086 119.423C160.086 122.024 157.978 124.132 155.377 124.132H94.5957C91.9953 124.132 89.8873 122.024 89.8873 119.423Z" fill="white" fill-opacity="0.6"></path><path d="M89.8873 137.401C89.8873 134.8 91.9953 132.692 94.5957 132.692H155.377C157.978 132.692 160.086 134.8 160.086 137.401C160.086 140.001 157.978 142.109 155.377 142.109H94.5957C91.9953 142.109 89.8873 140.001 89.8873 137.401Z" fill="white" fill-opacity="0.26"></path><path d="M89.8873 167.363C89.8873 158.616 96.9779 151.526 105.725 151.526H106.581C115.328 151.526 122.418 158.616 122.418 167.363C122.418 176.11 115.328 183.201 106.581 183.201H105.725C96.9779 183.201 89.8873 176.11 89.8873 167.363Z" fill="#767799"></path><path d="M86.4651 32.1033C86.4651 22.4109 94.3223 14.5537 104.015 14.5537H498.667C508.36 14.5537 516.217 22.4109 516.217 32.1033C516.217 41.7957 508.36 49.653 498.667 49.653H104.015C94.3223 49.653 86.4651 41.7957 86.4651 32.1033Z" fill="url(#paint4_linear_7_71)"></path><path d="M445.161 190.906C445.161 185.232 449.761 180.633 455.434 180.633H599.256C604.929 180.633 609.529 185.232 609.529 190.906V297.06C609.529 302.733 604.929 307.333 599.256 307.333H455.434C449.761 307.333 445.161 302.733 445.161 297.06V190.906Z" fill="url(#paint5_linear_7_71)"></path><path fill-rule="evenodd" clip-rule="evenodd" d="M599.256 182.345H455.434C450.706 182.345 446.874 186.178 446.874 190.906V297.06C446.874 301.788 450.706 305.62 455.434 305.62H599.256C603.984 305.62 607.816 301.788 607.816 297.06V190.906C607.816 186.178 603.984 182.345 599.256 182.345ZM455.434 180.633C449.761 180.633 445.161 185.232 445.161 190.906V297.06C445.161 302.733 449.761 307.333 455.434 307.333H599.256C604.929 307.333 609.529 302.733 609.529 297.06V190.906C609.529 185.232 604.929 180.633 599.256 180.633H455.434Z" fill="url(#paint6_linear_7_71)"></path><path d="M460.38 201.178C460.38 199.287 461.913 197.754 463.805 197.754H590.885C592.776 197.754 594.309 199.287 594.309 201.178C594.309 203.069 592.776 204.603 590.885 204.603H463.805C461.913 204.603 460.38 203.069 460.38 201.178Z" fill="url(#paint7_linear_7_71)"></path><path d="M460.38 218.301C460.38 216.409 461.913 214.876 463.805 214.876H504.896C506.788 214.876 508.321 216.409 508.321 218.301C508.321 220.192 506.788 221.725 504.896 221.725H463.805C461.913 221.725 460.38 220.192 460.38 218.301Z" fill="url(#paint8_linear_7_71)"></path><path d="M514.408 218.301C514.408 216.409 515.941 214.876 517.833 214.876H533.813C535.704 214.876 537.237 216.409 537.237 218.301C537.237 220.192 535.704 221.725 533.813 221.725H517.833C515.941 221.725 514.408 220.192 514.408 218.301Z" fill="url(#paint9_linear_7_71)"></path><path d="M460.38 286.787C460.38 284.896 461.913 283.363 463.805 283.363H504.896C506.788 283.363 508.321 284.896 508.321 286.787C508.321 288.678 506.788 290.211 504.896 290.211H463.805C461.913 290.211 460.38 288.678 460.38 286.787Z" fill="url(#paint10_linear_7_71)"></path><path d="M514.408 286.787C514.408 284.896 515.941 283.363 517.833 283.363H533.813C535.704 283.363 537.237 284.896 537.237 286.787C537.237 288.678 535.704 290.211 533.813 290.211H517.833C515.941 290.211 514.408 288.678 514.408 286.787Z" fill="url(#paint11_linear_7_71)"></path><path d="M487.775 252.544C487.775 250.653 489.308 249.119 491.2 249.119H502.614C504.505 249.119 506.038 250.653 506.038 252.544C506.038 254.435 504.505 255.968 502.614 255.968H491.2C489.308 255.968 487.775 254.435 487.775 252.544Z" fill="url(#paint12_linear_7_71)"></path><path d="M512.888 252.544C512.888 250.653 514.421 249.119 516.312 249.119H565.013C566.904 249.119 568.438 250.653 568.438 252.544C568.438 254.435 566.904 255.968 565.013 255.968H516.312C514.421 255.968 512.888 254.435 512.888 252.544Z" fill="url(#paint13_linear_7_71)"></path><path d="M460.38 252.544C460.38 250.653 461.913 249.119 463.805 249.119H479.785C481.676 249.119 483.209 250.653 483.209 252.544C483.209 254.435 481.676 255.968 479.785 255.968H463.805C461.913 255.968 460.38 254.435 460.38 252.544Z" fill="url(#paint14_linear_7_71)"></path><path d="M460.38 235.422C460.38 233.53 461.913 231.997 463.805 231.997H519.355C521.246 231.997 522.779 233.53 522.779 235.422C522.779 237.313 521.246 238.846 519.355 238.846H463.805C461.913 238.846 460.38 237.313 460.38 235.422Z" fill="url(#paint15_linear_7_71)"></path><path d="M528.106 235.422C528.106 233.53 529.639 231.997 531.531 231.997H557.403C559.294 231.997 560.828 233.53 560.828 235.422C560.828 237.313 559.294 238.846 557.403 238.846H531.531C529.639 238.846 528.106 237.313 528.106 235.422Z" fill="url(#paint16_linear_7_71)"></path><path d="M460.38 269.665C460.38 267.774 461.913 266.24 463.805 266.24H519.355C521.246 266.24 522.779 267.774 522.779 269.665C522.779 271.556 521.246 273.089 519.355 273.089H463.805C461.913 273.089 460.38 271.556 460.38 269.665Z" fill="url(#paint17_linear_7_71)"></path><path d="M117.839 32.2959C117.839 35.5379 115.21 38.1661 111.967 38.1661C108.724 38.1661 106.095 35.5379 106.095 32.2959C106.095 29.0539 108.724 26.4258 111.967 26.4258C115.21 26.4258 117.839 29.0539 117.839 32.2959Z" fill="#FED280"></path><path d="M138.39 32.2959C138.39 35.5379 135.761 38.1661 132.519 38.1661C129.276 38.1661 126.647 35.5379 126.647 32.2959C126.647 29.0539 129.276 26.4258 132.519 26.4258C135.761 26.4258 138.39 29.0539 138.39 32.2959Z" fill="#8CFEE3" fill-opacity="0.9"></path><path d="M158.944 32.2959C158.944 35.5379 156.315 38.1661 153.072 38.1661C149.829 38.1661 147.2 35.5379 147.2 32.2959C147.2 29.0539 149.829 26.4258 153.072 26.4258C156.315 26.4258 158.944 29.0539 158.944 32.2959Z" fill="#FF8DA9" fill-opacity="0.9"></path><path d="M46.1995 146.347C44.5098 144.143 41.1434 144.29 39.6514 146.632L28.643 163.913C26.9467 166.576 28.8594 170.062 32.0166 170.062H67.3961C70.6621 170.062 72.5516 166.36 70.6351 163.715L64.4999 155.249C63.0579 153.259 60.1559 153.085 58.4873 154.889C56.8477 156.662 54.0066 156.531 52.5374 154.615L46.1995 146.347Z" fill="white"></path><path d="M68.2891 133.778C68.2891 136.851 65.7978 139.342 62.7246 139.342C59.6514 139.342 57.1601 136.851 57.1601 133.778C57.1601 130.704 59.6514 128.213 62.7246 128.213C65.7978 128.213 68.2891 130.704 68.2891 133.778Z" fill="#C4C5DC"></path><path fill-rule="evenodd" clip-rule="evenodd" d="M183.842 146.39C183.842 145.799 184.321 145.32 184.912 145.32H312.484V170.521C312.484 171.112 312.005 171.591 311.414 171.591C310.823 171.591 310.343 171.112 310.343 170.521V147.46H184.912C184.321 147.46 183.842 146.981 183.842 146.39Z" fill="url(#paint18_linear_7_71)"></path><path fill-rule="evenodd" clip-rule="evenodd" d="M446.232 243.982C446.232 244.573 445.752 245.052 445.161 245.052L310.742 245.052L310.742 220.807C310.742 220.216 311.221 219.736 311.812 219.736C312.403 219.736 312.882 220.216 312.882 220.807L312.882 242.912L445.161 242.912C445.752 242.912 446.232 243.391 446.232 243.982Z" fill="url(#paint19_linear_7_71)"></path><g filter="url(#filter0_d_7_71)"><path fill-rule="evenodd" clip-rule="evenodd" d="M309.594 190.649C309.589 190.856 309.626 190.955 309.815 190.955H314.375C315.201 191.016 315.94 191.222 316.564 191.624C316.998 191.902 317.315 192.233 317.553 192.6C317.977 193.251 318.217 194.191 318.346 194.949C318.402 195.276 318.429 195.583 318.369 195.725C318.34 195.792 318.299 195.837 318.242 195.858C317.928 195.977 317.597 195.569 317.42 195.373C316.579 194.442 315.357 194.056 313.916 193.984H309.748C309.598 194.009 309.545 194.113 309.56 194.274V195.386C309.552 195.755 309.355 195.881 308.965 195.756L305.376 193.089L305.023 192.827L304.932 192.76C304.644 192.514 304.762 192.29 305.021 192.097L305.295 191.893L308.735 189.329C309.154 189.016 309.594 188.932 309.594 189.607V190.649ZM313.589 201.992C313.594 201.785 313.557 201.686 313.367 201.686H308.808C307.982 201.625 307.243 201.419 306.619 201.017C306.182 200.737 305.864 200.404 305.625 200.034C305.192 199.365 304.91 198.277 304.806 197.496C304.773 197.246 304.767 197.029 304.814 196.916C304.842 196.849 304.884 196.804 304.941 196.782C305.255 196.664 305.586 197.072 305.763 197.268C306.604 198.199 307.826 198.585 309.267 198.657H313.436C313.585 198.633 313.638 198.528 313.623 198.367V197.255C313.631 196.886 313.828 196.76 314.218 196.885L317.807 199.552L318.16 199.814L318.251 199.881C318.539 200.127 318.421 200.351 318.162 200.544L317.888 200.748L314.448 203.312C314.029 203.625 313.589 203.709 313.589 203.034L313.589 201.992Z" fill="#88F1DB"></path></g><circle cx="311.452" cy="195.852" r="18.1075" stroke="white" stroke-width="2"></circle><path d="M237.135 146.389C237.135 151.117 233.302 154.95 228.574 154.95C223.846 154.95 220.013 151.117 220.013 146.389C220.013 141.661 223.846 137.829 228.574 137.829C233.302 137.829 237.135 141.661 237.135 146.389Z" fill="#383A68"></path><path fill-rule="evenodd" clip-rule="evenodd" d="M228.574 153.238C232.356 153.238 235.423 150.172 235.423 146.389C235.423 142.607 232.356 139.541 228.574 139.541C224.792 139.541 221.725 142.607 221.725 146.389C221.725 150.172 224.792 153.238 228.574 153.238ZM228.574 154.95C233.302 154.95 237.135 151.117 237.135 146.389C237.135 141.661 233.302 137.829 228.574 137.829C223.846 137.829 220.013 141.661 220.013 146.389C220.013 151.117 223.846 154.95 228.574 154.95Z" fill="#63648A"></path><path d="M423.758 243.983C423.758 248.711 419.925 252.544 415.197 252.544C410.469 252.544 406.637 248.711 406.637 243.983C406.637 239.255 410.469 235.422 415.197 235.422C419.925 235.422 423.758 239.255 423.758 243.983Z" fill="#383A68"></path><path fill-rule="evenodd" clip-rule="evenodd" d="M415.197 250.832C418.98 250.832 422.046 247.766 422.046 243.983C422.046 240.201 418.98 237.135 415.197 237.135C411.415 237.135 408.349 240.201 408.349 243.983C408.349 247.766 411.415 250.832 415.197 250.832ZM415.197 252.544C419.925 252.544 423.758 248.711 423.758 243.983C423.758 239.255 419.925 235.422 415.197 235.422C410.469 235.422 406.637 239.255 406.637 243.983C406.637 248.711 410.469 252.544 415.197 252.544Z" fill="#63648A"></path><path d="M128.412 157.949C128.412 154.402 131.289 151.526 134.837 151.526H153.31C156.859 151.526 159.736 154.402 159.736 157.949V176.417C159.736 179.965 156.859 182.841 153.31 182.841H134.837C131.289 182.841 128.412 179.965 128.412 176.417V157.949Z" fill="#767799"></path><path fill-rule="evenodd" clip-rule="evenodd" d="M147.19 176.165H141.402V173.756H147.19V176.165Z" fill="white"></path><path fill-rule="evenodd" clip-rule="evenodd" d="M136.042 159.957H152.105V163.832H149.696V162.366H138.451V163.832H136.042V159.957Z" fill="white"></path><path fill-rule="evenodd" clip-rule="evenodd" d="M143.019 175.096L143.167 161.297L145.576 161.323L145.427 175.121L143.019 175.096Z" fill="white"></path><defs><filter id="filter0_d_7_71" x="290.764" y="179.094" width="41.6544" height="42.4529" filterUnits="userSpaceOnUse" color-interpolation-filters="sRGB"><feFlood flood-opacity="0" result="BackgroundImageFix"></feFlood><feColorMatrix in="SourceAlpha" type="matrix" values="0 0 0 0 0 0 0 0 0 0 0 0 0 0 0 0 0 0 127 0" result="hardAlpha"></feColorMatrix><feOffset dy="4"></feOffset><feGaussianBlur stdDeviation="7"></feGaussianBlur><feComposite in2="hardAlpha" operator="out"></feComposite><feColorMatrix type="matrix" values="0 0 0 0 0.533333 0 0 0 0 0.945098 0 0 0 0 0.858824 0 0 0 1 0"></feColorMatrix><feBlend mode="normal" in2="BackgroundImageFix" result="effect1_dropShadow_7_71"></feBlend><feBlend mode="normal" in="SourceGraphic" in2="effect1_dropShadow_7_71" result="shape"></feBlend></filter><linearGradient id="paint0_linear_7_71" x1="305.003" y1="0" x2="422.858" y2="501.404" gradientUnits="userSpaceOnUse"><stop offset="0.859244" stop-color="#4E4F7E"></stop><stop offset="1" stop-color="#C4C4C4" stop-opacity="0"></stop></linearGradient><linearGradient id="paint1_linear_7_71" x1="304.764" y1="1.28041e-05" x2="628.529" y2="233.571" gradientUnits="userSpaceOnUse"><stop stop-color="white" stop-opacity="0.17"></stop><stop offset="1" stop-opacity="0"></stop></linearGradient><linearGradient id="paint2_linear_7_71" x1="39.96" y1="120.485" x2="266.488" y2="415.422" gradientUnits="userSpaceOnUse"><stop stop-color="#40416E"></stop><stop offset="1" stop-color="#5A5B8B"></stop></linearGradient><linearGradient id="paint3_linear_7_71" x1="92.4566" y1="86.4641" x2="171.175" y2="408.737" gradientUnits="userSpaceOnUse"><stop stop-color="white" stop-opacity="0.17"></stop><stop offset="1" stop-opacity="0"></stop></linearGradient><linearGradient id="paint4_linear_7_71" x1="301.341" y1="14.5537" x2="366.281" y2="214.757" gradientUnits="userSpaceOnUse"><stop stop-color="white" stop-opacity="0.15"></stop><stop offset="1" stop-color="#C4C4C4" stop-opacity="0"></stop></linearGradient><linearGradient id="paint5_linear_7_71" x1="762.056" y1="511.851" x2="311.725" y2="103.015" gradientUnits="userSpaceOnUse"><stop stop-color="#40416E"></stop><stop offset="1" stop-color="#5A5B8B"></stop></linearGradient><linearGradient id="paint6_linear_7_71" x1="527.345" y1="180.633" x2="614.598" y2="498.157" gradientUnits="userSpaceOnUse"><stop stop-color="white" stop-opacity="0.17"></stop><stop offset="1" stop-opacity="0"></stop></linearGradient><linearGradient id="paint7_linear_7_71" x1="527.345" y1="197.754" x2="535.766" y2="239.218" gradientUnits="userSpaceOnUse"><stop stop-color="white" stop-opacity="0.56"></stop><stop offset="1" stop-color="#C4C4C4" stop-opacity="0"></stop></linearGradient><linearGradient id="paint8_linear_7_71" x1="484.35" y1="214.876" x2="502.881" y2="247.537" gradientUnits="userSpaceOnUse"><stop stop-color="#F9C746" stop-opacity="0.52"></stop><stop offset="1" stop-color="#C4C4C4" stop-opacity="0"></stop></linearGradient><linearGradient id="paint9_linear_7_71" x1="525.823" y1="214.876" x2="547.083" y2="232.72" gradientUnits="userSpaceOnUse"><stop stop-color="#84EBE5" stop-opacity="0.62"></stop><stop offset="1" stop-color="#C4C4C4" stop-opacity="0"></stop></linearGradient><linearGradient id="paint10_linear_7_71" x1="484.35" y1="283.363" x2="502.881" y2="316.023" gradientUnits="userSpaceOnUse"><stop stop-color="white" stop-opacity="0.56"></stop><stop offset="1" stop-color="#C4C4C4" stop-opacity="0"></stop></linearGradient><linearGradient id="paint11_linear_7_71" x1="525.823" y1="283.363" x2="547.083" y2="301.206" gradientUnits="userSpaceOnUse"><stop stop-color="#F47D9E"></stop><stop offset="1" stop-color="#C4C4C4" stop-opacity="0"></stop></linearGradient><linearGradient id="paint12_linear_7_71" x1="496.907" y1="249.119" x2="516.888" y2="262.535" gradientUnits="userSpaceOnUse"><stop stop-color="#F2C87D"></stop><stop offset="1" stop-color="#C4C4C4" stop-opacity="0"></stop></linearGradient><linearGradient id="paint13_linear_7_71" x1="540.663" y1="249.119" x2="557.714" y2="283.944" gradientUnits="userSpaceOnUse"><stop stop-color="white" stop-opacity="0.62"></stop><stop offset="1" stop-color="#C4C4C4" stop-opacity="0"></stop></linearGradient><linearGradient id="paint14_linear_7_71" x1="466.468" y1="247.407" x2="501.508" y2="252.355" gradientUnits="userSpaceOnUse"><stop stop-color="#F37D9D"></stop><stop offset="1" stop-color="#C4C4C4" stop-opacity="0"></stop></linearGradient><linearGradient id="paint15_linear_7_71" x1="491.58" y1="231.997" x2="507.394" y2="268.278" gradientUnits="userSpaceOnUse"><stop stop-color="white" stop-opacity="0.58"></stop><stop offset="1" stop-color="#C4C4C4" stop-opacity="0"></stop></linearGradient><linearGradient id="paint16_linear_7_71" x1="544.467" y1="231.997" x2="565.691" y2="257.529" gradientUnits="userSpaceOnUse"><stop stop-color="white" stop-opacity="0.45"></stop><stop offset="1" stop-color="#C4C4C4" stop-opacity="0"></stop></linearGradient><linearGradient id="paint17_linear_7_71" x1="491.58" y1="266.24" x2="507.394" y2="302.521" gradientUnits="userSpaceOnUse"><stop stop-color="#70D1E7"></stop><stop offset="1" stop-color="#C4C4C4" stop-opacity="0"></stop></linearGradient><linearGradient id="paint18_linear_7_71" x1="300.782" y1="140.479" x2="129.087" y2="192.298" gradientUnits="userSpaceOnUse"><stop stop-color="#767799"></stop><stop offset="1" stop-color="#767799" stop-opacity="0"></stop></linearGradient><linearGradient id="paint19_linear_7_71" x1="323.112" y1="249.893" x2="502.326" y2="192.92" gradientUnits="userSpaceOnUse"><stop stop-color="#767799"></stop><stop offset="1" stop-color="#767799" stop-opacity="0"></stop></linearGradient></defs></svg> 